<svg width="14" height="16" viewBox="0 0 14 16" fill="none" xmlns="http://www.w3.org/2000/svg">
<path opacity="0.6" fill-rule="evenodd" clip-rule="evenodd" d="M10.7202 11.2774L13.9888 15.1128L13.4219 15.6L10.1444 11.7646C9.01655 12.6208 7.74692 13.0489 6.33557 13.0489C5.4793 13.0489 4.65995 12.8821 3.87753 12.5485C3.09511 12.2148 2.42192 11.766 1.85795 11.2021C1.29398 10.6382 0.845183 9.96496 0.511567 9.18251C0.177951 8.40007 0.0111317 7.58073 0.0111084 6.72448C0.0110851 5.86824 0.177905 5.04889 0.511567 4.26645C0.845229 3.48401 1.29402 2.81081 1.85795 2.24686C2.42187 1.68292 3.09507 1.23412 3.87753 0.900483C4.66 0.566844 5.47934 0.400024 6.33557 0.400024C7.19179 0.400024 8.01113 0.566844 8.7936 0.900483C9.57607 1.23412 10.2493 1.68292 10.8132 2.24686C11.3771 2.81081 11.8259 3.48401 12.1596 4.26645C12.4932 5.04889 12.66 5.86824 12.66 6.72448C12.66 7.60435 12.4888 8.43698 12.1463 9.22238C11.8038 10.0078 11.3284 10.6928 10.7202 11.2774L10.7202 11.2774ZM6.33564 12.3049C7.34541 12.3049 8.27843 12.0554 9.1347 11.5564C9.99097 11.0573 10.6686 10.3797 11.1676 9.52348C11.6666 8.66723 11.9161 7.73421 11.9161 6.72441C11.9161 5.71461 11.6666 4.78159 11.1676 3.92535C10.6685 3.0691 9.99092 2.39149 9.1347 1.89251C8.27848 1.39352 7.34546 1.14403 6.33564 1.14403C5.32581 1.14403 4.39279 1.39352 3.53657 1.89251C2.68035 2.39149 2.00273 3.0691 1.50373 3.92535C1.00472 4.78159 0.755233 5.71461 0.755257 6.72441C0.75528 7.73421 1.00477 8.66723 1.50373 9.52348C2.00269 10.3797 2.6803 11.0573 3.53657 11.5564C4.39284 12.0554 5.32586 12.3049 6.33564 12.3049Z" fill="white"/>
</svg>
