<svg id="Camada_1" data-name="Camada 1" xmlns="http://www.w3.org/2000/svg" viewBox="0 0 1143.53 291.24"><path d="M14.74,274.11V120.74H52.47V245.42H172.72v28.69Z"/><path d="M302.87,120.74H298l-15,27.81,35.78,63.93H248l-15.26,28H334l19.31,33.64h42Z"/><path d="M418,274.11V120.74H555.76q19.31,0,27.8,7t8.5,22.75v18.42q0,10.46-6.73,17.18t-19.48,9q12.93,2.13,20.1,9.83t7.18,19.39V244q0,15.06-11.87,22.58t-35.77,7.53Zm120.6-128.4H454.81V182h83.77q9.74,0,13.28-2.48t3.54-8.5V156.52c0-4-1.15-6.82-3.45-8.42S545.19,145.71,538.58,145.71Zm0,61.63H454.81v39.14h83.77q10.62,0,14.43-3c2.54-2,3.81-5.55,3.81-10.62V221.16q0-7.62-3.81-10.72T538.58,207.34Z"/><path d="M640.76,120.74v26.54h42.06l122.46.55V120.74Zm37.72,124.68V207.7h73.84V181.32H640.76v92.79H807.22V245.42Z"/><path d="M829.45,273.62l76-78.39-77-75,50.12.16L930,170.15l29.27-29.26A1048,1048,0,0,1,1075.65,40.38c25.77-19.13,32.55-22.22,67.88-40.38h0L951.74,190.94l86,83.33-51.18-.16-58.62-57.56-54.19,57.21Z"/></svg>