<svg  class="chatIcon" width="48" height="48" viewBox="0 0 48 48" fill="none" xmlns="http://www.w3.org/2000/svg">
<path d="M22.9545 33.5C23.4756 33.5 23.99 33.477 24.4962 33.4321C24.458 33.3833 24.4205 33.3342 24.3836 33.2847C22.9355 31.9306 22.0854 30.2805 22.0854 28.5C22.0854 23.8976 27.7651 20.1667 34.7714 20.1667C35.3648 20.1667 35.9486 20.1934 36.5204 20.2452C35.0436 15.1895 29.5302 11 22.9545 11C15.2476 11 9 16.0368 9 22.25C9 26.1993 11.5242 29.6733 15.343 31.6806V36L19.9992 33.2472C20.9518 33.4128 21.9405 33.5 22.9545 33.5Z" fill="#D4D8DD" />
<path d="M36.1245 32.7723C37.8706 31.7481 39 30.1174 39 28.2807C39 25.1802 35.7815 22.6667 31.8113 22.6667C27.8411 22.6667 24.6226 25.1802 24.6226 28.2807C24.6226 31.3812 27.8411 33.8947 31.8113 33.8947L36.1245 36V32.7723Z" fill="#D4D8DD"
/>
</svg>
