<svg width="25" height="22" viewBox="0 0 25 22" fill="none" xmlns="http://www.w3.org/2000/svg">
<path d="M12.4846 2.9527C10.8142 1.27895 6.54276 -1.14757 2.59833 2.35062C-1.36643 5.86683 2.18533 10.9319 4.45681 13.0248L12.459 21.1356V21.1875L12.4846 21.1615L12.5102 21.1875V21.1356L20.5124 13.0248C22.7839 10.9319 26.3356 5.86683 22.3709 2.35062C18.4264 -1.14757 14.155 1.27895 12.4846 2.9527Z" fill="#50ECCF"/>
<path d="M12.4846 2.9527C10.8142 1.27895 6.54276 -1.14757 2.59833 2.35062C-1.36643 5.86683 2.18533 10.9319 4.45681 13.0248L12.459 21.1356V21.1875L12.4846 21.1615L12.5102 21.1875V21.1356L20.5124 13.0248C22.7839 10.9319 26.3356 5.86683 22.3709 2.35062C18.4264 -1.14757 14.155 1.27895 12.4846 2.9527Z" fill="url(#paint0_linear)"/>
<defs>
<linearGradient id="paint0_linear" x1="22.8437" y1="2.90625" x2="12.0625" y2="15.5625" gradientUnits="userSpaceOnUse">
<stop stop-color="#13E49B"/>
<stop offset="1" stop-color="#13E49B" stop-opacity="0"/>
</linearGradient>
</defs>
</svg>
