<svg width="20" height="19" viewBox="0 0 20 19" fill="none" xmlns="http://www.w3.org/2000/svg">
<path d="M15.1734 18.173C16.1594 19.1229 17.7294 19.0944 18.6802 18.1092C19.6309 17.1241 19.6024 15.5554 18.6164 14.6054L13.5729 9.74609L18.6164 4.88673C19.6024 3.93677 19.631 2.36807 18.6802 1.38293C17.7294 0.397786 16.1594 0.369263 15.1735 1.31922L10 6.30372L4.82655 1.31922C3.84058 0.369263 2.27056 0.397786 1.3198 1.38293C0.369049 2.36807 0.397595 3.93677 1.38356 4.88673L6.42713 9.74609L1.38357 14.6054C0.397605 15.5554 0.369059 17.1241 1.31981 18.1092C2.27057 19.0944 3.84059 19.1229 4.82656 18.173L10 13.1885L15.1734 18.173Z" fill="#FF6F5A"/>
<path d="M15.1734 18.173C16.1594 19.1229 17.7294 19.0944 18.6802 18.1092C19.6309 17.1241 19.6024 15.5554 18.6164 14.6054L13.5729 9.74609L18.6164 4.88673C19.6024 3.93677 19.631 2.36807 18.6802 1.38293C17.7294 0.397786 16.1594 0.369263 15.1735 1.31922L10 6.30372L4.82655 1.31922C3.84058 0.369263 2.27056 0.397786 1.3198 1.38293C0.369049 2.36807 0.397595 3.93677 1.38356 4.88673L6.42713 9.74609L1.38357 14.6054C0.397605 15.5554 0.369059 17.1241 1.31981 18.1092C2.27057 19.0944 3.84059 19.1229 4.82656 18.173L10 13.1885L15.1734 18.173Z" fill="url(#paint0_linear)"/>
<defs>
<linearGradient id="paint0_linear" x1="16.0389" y1="-0.314561" x2="5.26106" y2="15.6313" gradientUnits="userSpaceOnUse">
<stop stop-color="#FF2969"/>
<stop offset="1" stop-color="#FF2969" stop-opacity="0"/>
</linearGradient>
</defs>
</svg>
