<svg xmlns="http://www.w3.org/2000/svg" xmlns:xlink="http://www.w3.org/1999/xlink" x="0px" y="0px" width="48px" height="48px" viewBox="0 0 48 48"><g >
<path fill="#444444" d="M42.3,0H5.7C2.6,0,0,2.5,0,5.7v36.6C0,45.5,2.6,48,5.7,48h36.6c3.2,0,5.7-2.5,5.7-5.7V5.7
	C48,2.5,45.4,0,42.3,0z M36,6h4c1.1,0,2,0.9,2,2v4c0,1.1-0.9,2-2,2h-4c-1.1,0-2-0.9-2-2V8C34,6.9,34.9,6,36,6z M24.1,14.8
	c5.1,0,9.2,4.1,9.2,9.2c0,5.1-4.1,9.2-9.2,9.2c-5.1,0-9.2-4.1-9.2-9.2C14.8,19,19,14.8,24.1,14.8z M40,42H8c-1.1,0-2-0.9-2-2V20h4
	c-0.6,2.2-0.7,4.8-0.2,7.2c1.2,5.6,5.7,10,11.3,11.1c9.3,1.8,17.5-5.3,17.5-14.3c0-1.3-0.3-2.8-0.7-4.1h4v20C42,41.1,41.1,42,40,42z
	"/>
</g></svg>