<svg version="1.1" xmlns="http://www.w3.org/2000/svg" xmlns:xlink="http://www.w3.org/1999/xlink" x="0px" y="0px" viewBox="0 0 64 64" xml:space="preserve" width="64" height="64"><title>handout</title><g class="nc-icon-wrapper" stroke-linecap="round" stroke-linejoin="round" stroke-width="3" transform="translate(0.5 0.5)" fill="#111111" stroke="#111111"><path data-cap="butt" fill="none" stroke="#111111" stroke-miterlimit="10" d="M10,32h2c4.535,0,9.653,2.495,12,6h8 c4.014,0,8,3.986,8,8H22"/> <path data-cap="butt" fill="none" stroke="#111111" stroke-miterlimit="10" d="M38.722,42H52c7.25,0,8,4,8,4 L31.36,57.632c-2.279,0.912-4.839,0.805-7.034-0.293L10,50.063"/> <circle data-color="color-2" fill="none" stroke-miterlimit="10" cx="48" cy="24" r="8"/> <rect x="2" y="28" fill="none" stroke="#111111" stroke-miterlimit="10" width="8" height="26"/> <circle data-color="color-2" fill="none" stroke-miterlimit="10" cx="24" cy="12" r="8"/> <line data-color="color-2" fill="none" stroke-miterlimit="10" x1="22" y1="12" x2="26" y2="12"/> <line data-color="color-2" fill="none" stroke-miterlimit="10" x1="46" y1="24" x2="50" y2="24"/></g></svg>