<svg version="1.1" xmlns="http://www.w3.org/2000/svg" xmlns:xlink="http://www.w3.org/1999/xlink" x="0px" y="0px" viewBox="0 0 32 32" xml:space="preserve" width="32" height="32"><title>check circle</title><g class="nc-icon-wrapper" fill="#000000"><path data-color="color-2" d="M26.277,12.937C26.736,14.208,27,15.572,27,17c0,6.617-5.383,12-12,12S3,23.617,3,17 S8.383,5,15,5c2.639,0,5.074,0.867,7.058,2.316l1.554-1.332C21.233,4.122,18.248,3,15,3C7.28,3,1,9.28,1,17s6.28,14,14,14 s14-6.28,14-14c0-2.019-0.438-3.935-1.211-5.67L26.277,12.937z"/> <polygon fill="#000000" points="29,4 15,16 9,11 7,13 15,22 31,5 "/></g></svg>