<svg id="Layer_1" data-name="Layer 1" xmlns="http://www.w3.org/2000/svg" viewBox="0 0 1080 488.97"><defs><style>.cls-1{fill:#33ffa5;}</style></defs><path class="cls-1" d="M203.93,65.21H75.8a21.07,21.07,0,0,0-7,.92,11.17,11.17,0,0,0-4.09,2.51A12.5,12.5,0,0,0,61,77.86a11.71,11.71,0,0,0,4.48,9.49,10.25,10.25,0,0,0,3.83,2A24.11,24.11,0,0,0,75.8,90h78.3q15,0,25.44,4.35a51.61,51.61,0,0,1,17.53,11.73A56.16,56.16,0,0,1,208.28,123a51.11,51.11,0,0,1,.52,38.75,56.93,56.93,0,0,1-9.62,16.08,53.59,53.59,0,0,1-18.32,13.45q-11,5-26.76,5H16V150.63H145.66a24.41,24.41,0,0,0,8.57-1.19A11.65,11.65,0,0,0,162,138a12.91,12.91,0,0,0-3.69-9.49,10.5,10.5,0,0,0-4.62-3,27,27,0,0,0-8-.92H73.16q-17.94,0-28.87-4.35a50.66,50.66,0,0,1-18.06-11.73A54.17,54.17,0,0,1,15.16,91.7a51.86,51.86,0,0,1-4-20.43A50.72,50.72,0,0,1,15.29,51,56,56,0,0,1,26.49,34.1,50.9,50.9,0,0,1,44.42,22.37Q55.24,18,73.16,18H203.93Z"/><path class="cls-1" d="M366.06,18q19,0,31.77,5.14a64,64,0,0,1,21.75,14.1,67.81,67.81,0,0,1,14.5,21.62,65.74,65.74,0,0,1,1.19,48.64,69.32,69.32,0,0,1-11.47,19.91A65.32,65.32,0,0,1,400.6,145q-14,6.47-34.54,6.46h-82v44.82H236.35V29.09Q236.35,18,248,18Zm1.06,89.63q7.9,0,12.79-2.24a19.42,19.42,0,0,0,7.77-6.19,20.34,20.34,0,0,0,4.22-12.66,21.36,21.36,0,0,0-4.48-13.44,19.6,19.6,0,0,0-7.78-5.8,31.69,31.69,0,0,0-12.52-2.11H287.5q-3.44,0-3.43,3.69v38.75Z"/><path class="cls-1" d="M658.18,188.33a37.8,37.8,0,0,1,1.71,3.95c.44,1.24.83,2.55,1.19,4H607.3c-.36-1.23-.71-2.33-1.06-3.3s-.7-1.88-1-2.76l-9.49-21.62H490.24L481,189.91,480,193.07a19.33,19.33,0,0,0-.79,3.17H424.06c.35-1.41.75-2.72,1.19-4a37.8,37.8,0,0,1,1.71-3.95L490.77,47q7.64-16.62,20-24.79t31.64-8.17q18.72,0,31.24,8.17T593.85,47ZM578.3,129.27l-27.42-63.8a9.53,9.53,0,0,0-3.43-4.22,8.86,8.86,0,0,0-4.75-1.31,9,9,0,0,0-4.48,1.18,8.45,8.45,0,0,0-3.43,4.35l-27.15,63.8Z"/><path class="cls-1" d="M846.68,196.24H753.35q-24,0-41.65-7.78a89.12,89.12,0,0,1-30.06-21.22,88.06,88.06,0,0,1-22.93-60.11,87.09,87.09,0,0,1,7.64-36.39,89.89,89.89,0,0,1,21.09-29.26,85.27,85.27,0,0,1,28.08-17.27Q731.74,18,753.35,18h93.33V65.21H753.35q-12.12,0-20,3.16a44.76,44.76,0,0,0-13.71,8.44A43.5,43.5,0,0,0,710,90.52a42.14,42.14,0,0,0-.65,32.29,39.56,39.56,0,0,0,8.17,12.79,41,41,0,0,0,14.5,10q8.7,3.69,21.35,3.69h93.33Z"/><path class="cls-1" d="M1061,18V65.21H925.51q-4.21,0-4.22,4.48V90h138.94v34.27H921.29v21.62q0,4.76,4.22,4.75H1061v45.61H898.62q-25.05,0-25-24.78V42q0-24,25.31-24Z"/><path class="cls-1" d="M222.52,293.67v46.64H145.4V469.8H98V340.31H20.6V293.67Z"/><path class="cls-1" d="M643.79,299.66a26.88,26.88,0,0,1-3-3.38,13,13,0,0,1-1.44-2.61h58.1q.52,1.05,1.44,2.61a17,17,0,0,0,2.73,3.38l44.29,48.2a4.56,4.56,0,0,0,7.3,0l44-48.2a19.29,19.29,0,0,0,4.43-6h57.06c-.52.87-1.09,1.74-1.69,2.61a28,28,0,0,1-3,3.38l-82.59,91.19V469.8H723.78V387.73Z"/><path class="cls-1" d="M1048.41,340.31H921.79a20.66,20.66,0,0,0-6.91.91,10.86,10.86,0,0,0-4,2.48,12.33,12.33,0,0,0-3.65,9.11,11.57,11.57,0,0,0,4.43,9.38,10.48,10.48,0,0,0,3.77,2,24.17,24.17,0,0,0,6.39.65h77.38q14.85,0,25.14,4.3a51,51,0,0,1,17.33,11.59,55.32,55.32,0,0,1,11.07,16.68,50.46,50.46,0,0,1,.52,38.3,56.26,56.26,0,0,1-9.51,15.89,52.94,52.94,0,0,1-18.11,13.29q-10.8,4.95-26.44,4.95H862.65V424.72H990.83a24.16,24.16,0,0,0,8.47-1.17,11.55,11.55,0,0,0,7.69-11.33,12.71,12.71,0,0,0-3.65-9.38,10.3,10.3,0,0,0-4.56-3,26.84,26.84,0,0,0-7.95-.91H919.18q-17.71,0-28.52-4.3A50.06,50.06,0,0,1,872.81,383a53.88,53.88,0,0,1-10.95-16.55A51.4,51.4,0,0,1,858,346.3a50.2,50.2,0,0,1,4-20.06,55.47,55.47,0,0,1,11.08-16.68A50.3,50.3,0,0,1,890.79,298q10.66-4.29,28.39-4.3h129.23Z"/><path class="cls-1" d="M562.39,469.8H319.24a88,88,0,0,1,0-176H562.39a88,88,0,0,1,0,176ZM319.24,340.35a41.46,41.46,0,1,0,0,82.92H562.39a41.46,41.46,0,1,0,0-82.92Z"/></svg>